<?xml version="1.0" encoding="UTF-8" standalone="no"?>
<svg
   xmlns:dc="http://purl.org/dc/elements/1.1/"
   xmlns:cc="http://creativecommons.org/ns#"
   xmlns:rdf="http://www.w3.org/1999/02/22-rdf-syntax-ns#"
   xmlns:svg="http://www.w3.org/2000/svg"
   xmlns="http://www.w3.org/2000/svg"
   xmlns:sodipodi="http://sodipodi.sourceforge.net/DTD/sodipodi-0.dtd"
   xmlns:inkscape="http://www.inkscape.org/namespaces/inkscape"
   version="1.1"
   id="svg2"
   xml:space="preserve"
   width="2355.5867"
   height="3324.9067"
   viewBox="0 0 2355.5867 3324.9067"
   sodipodi:docname="css-3-seeklogo.com.eps"><metadata
     id="metadata8"><rdf:RDF><cc:Work
         rdf:about=""><dc:format>image/svg+xml</dc:format><dc:type
           rdf:resource="http://purl.org/dc/dcmitype/StillImage" /></cc:Work></rdf:RDF></metadata><defs
     id="defs6" /><sodipodi:namedview
     pagecolor="#ffffff"
     bordercolor="#666666"
     borderopacity="1"
     objecttolerance="10"
     gridtolerance="10"
     guidetolerance="10"
     inkscape:pageopacity="0"
     inkscape:pageshadow="2"
     inkscape:window-width="640"
     inkscape:window-height="480"
     id="namedview4" /><g
     id="g10"
     inkscape:groupmode="layer"
     inkscape:label="ink_ext_XXXXXX"
     transform="matrix(1.3333333,0,0,-1.3333333,0,3324.9067)"><g
       id="g12"
       transform="scale(0.1)"><path
         d="M 8822.65,0 1607.82,2002.9 0,20036.1 H 17666.9 L 16057.4,2005.6 8822.65,0 v 0"
         style="fill:#4353ad;fill-opacity:1;fill-rule:nonzero;stroke:none"
         id="path14" /><path
         d="m 14679.5,3153.8 1375.3,15407.9 H 8833.45 V 1533.1 l 5846.05,1620.7 v 0"
         style="fill:#485fb5;fill-opacity:1;fill-rule:nonzero;stroke:none"
         id="path16" /><path
         d="m 8833.45,6129.3 -9.7,-2.5 -2463.15,665.1 -157.48,1763.9 H 3982.9 l 309.83,-3472.7 4530.54,-1257.7 10.18,2.8 z m -5545.91,10220.6 201.04,-2211.7 h 5344.87 v 2211.7 H 3287.54 Z m 398.33,-4476.5 198.2,-2211.7 h 4949.38 v 2211.7 H 3685.87"
         style="fill:#ededed;fill-opacity:1;fill-rule:nonzero;stroke:none"
         id="path18" /><path
         d="m 10586.8,24936.8 h 2678.8 v -974.1 h -1558.5 v -194.8 h 1558.5 v -2240.5 h -2678.8 v 1023 h 1558.6 v 194.8 h -1558.5 v 2191.6 z m -3214.5,0 H 10051 v -974.1 H 8492.52 v -194.8 H 10051 V 21527.4 H 7372.37 v 1023 h 1558.52 v 194.8 H 7372.23 v 2191.6 z m -3214.48,0 H 6836.5 V 23816.6 H 5278.05 V 22696.4 H 6836.63 V 21576.2 H 4157.82 v 3360.6"
         style="fill:#100f0d;fill-opacity:1;fill-rule:nonzero;stroke:none"
         id="path20" /><path
         d="m 13966.9,11873.4 399.2,4476.5 H 8825.83 v -2211.7 h 3116.47 l -201.2,-2264.8 H 8825.83 V 9661.7 H 11549.3 L 11292.5,6793.2 8825.76,6127.5 v -2301 l 4534.14,1256.6 33.2,373.6 519.9,5822.8 53.9,593.9 v 0"
         style="fill:#ffffff;fill-opacity:1;fill-rule:nonzero;stroke:none"
         id="path22" /></g></g></svg>
